<svg version="1.1" id="Layer_1" xmlns="http://www.w3.org/2000/svg" xmlns:xlink="http://www.w3.org/1999/xlink" x="0px" y="0px"
	 width="100%" viewBox="0 0 500 500" enable-background="new 0 0 500 500" xml:space="preserve">
<path fill="#000000" opacity="1.000000" stroke="none" 
	d="
M332.000000,501.000000 
	C221.333359,501.000000 111.166718,501.000000 1.000059,501.000000 
	C1.000039,334.333405 1.000039,167.666794 1.000020,1.000149 
	C167.666565,1.000099 334.333130,1.000099 500.999756,1.000050 
	C500.999847,167.666519 500.999847,334.333038 500.999939,500.999786 
	C444.833344,501.000000 388.666656,501.000000 332.000000,501.000000 
M312.846191,332.517731 
	C312.654083,332.153351 312.377930,332.071167 311.334747,331.922668 
	C307.927979,328.843750 304.196411,330.501892 300.654541,331.448517 
	C300.038391,331.613190 299.251404,334.231812 299.705902,334.822601 
	C303.509033,339.766113 303.467499,344.414215 299.486908,349.201782 
	C299.058167,349.717468 299.393768,350.984131 299.568481,351.863953 
	C300.038513,354.231415 300.609955,356.578827 301.147675,358.932709 
	C301.693909,361.324066 302.247894,363.713715 302.798492,366.104126 
	C303.547363,366.040161 304.296234,365.976227 305.045105,365.912262 
	C305.354706,364.312012 305.882538,362.718536 305.932556,361.110229 
	C306.075928,356.500977 305.641602,351.857544 310.958832,349.293915 
	C312.339661,348.628113 313.019684,346.508789 314.657867,344.734650 
	C315.436249,345.845306 316.148499,347.010223 317.006500,348.055511 
	C318.873779,350.330414 320.617310,352.784637 322.854462,354.627869 
	C323.476898,355.140686 325.920380,354.086212 327.015747,353.150604 
	C327.717133,352.551544 327.479279,350.852844 327.766541,348.962250 
	C325.628967,349.980621 324.487610,350.524353 323.346222,351.068115 
	C323.099152,348.852325 323.596497,347.225128 324.524597,345.899445 
	C325.460846,344.562073 327.348053,343.725677 327.892548,342.312897 
	C329.044189,339.324951 330.016327,336.118500 330.121277,332.970337 
	C330.151520,332.063416 326.997864,330.299225 325.256958,330.236694 
	C321.314575,330.095123 319.144897,332.858185 318.057068,336.424591 
	C317.443146,338.437347 316.996979,340.501282 316.414673,342.778992 
	C315.897186,340.313782 315.449402,338.180573 315.009186,335.988861 
	C315.009186,335.988861 314.950165,335.987335 314.906036,335.384491 
	C314.603424,334.946777 314.300812,334.509094 313.999054,333.993073 
	C313.999054,333.993073 313.920776,333.991241 313.838715,333.506287 
	C313.652039,333.191345 313.375793,333.041840 313.010162,332.991943 
	C313.010162,332.991943 312.944244,332.992676 312.846191,332.517731 
M158.982986,345.015656 
	C158.982986,345.015656 159.137177,345.018524 159.176285,345.493500 
	C159.355988,345.808105 159.625626,345.942749 159.987091,346.011932 
	C159.987091,346.011932 160.101562,346.014160 160.171005,346.492004 
	C160.353973,346.803802 160.625839,346.947601 160.987564,347.017670 
	C160.987564,347.017670 161.081726,347.021759 161.124130,347.679199 
	C160.800583,348.452148 160.477020,349.225128 159.971771,349.993683 
	C159.971771,349.993683 159.961746,350.175171 159.319031,350.139923 
	C158.889923,350.141052 158.460831,350.142212 158.024353,349.998352 
	C158.024353,349.998352 157.879196,350.001434 157.737640,349.419403 
	C157.172699,349.234802 156.607758,349.050171 155.998779,348.416382 
	C155.998779,348.416382 155.805603,348.008423 155.673691,347.301147 
	C151.169968,346.747406 153.136703,349.132263 154.251480,351.678986 
	C156.171432,352.389496 158.091400,353.100037 160.681763,353.942902 
	C161.438995,353.630188 162.196228,353.317474 163.011932,353.010315 
	C163.011932,353.010315 163.012421,352.951599 163.505508,352.852417 
	C163.671158,352.573059 163.836792,352.293671 164.638565,351.711395 
	C165.594788,348.706055 166.718475,350.398010 168.011307,351.507080 
	C171.891602,354.835876 173.794937,354.324860 175.906021,349.560059 
	C176.293320,348.686005 176.843292,347.884003 176.781937,347.991913 
	C178.840378,350.057526 180.466995,352.816711 182.722595,353.500122 
	C183.935791,353.867706 186.227890,350.674561 188.594147,348.888733 
	C189.373917,348.959900 190.153671,349.031067 191.060379,349.818604 
	C192.889267,351.445068 194.505478,353.540710 196.634216,354.505615 
	C197.744904,355.009064 199.983414,353.807495 201.258682,352.800995 
	C201.812592,352.363831 201.223572,350.478485 201.197098,350.013763 
	C198.760193,350.013763 197.098129,350.013763 195.436050,350.013763 
	C196.249039,348.533295 196.885483,346.913818 197.916275,345.604858 
	C199.471252,343.630310 201.301529,341.872589 203.479279,339.856384 
	C203.807297,339.669617 203.941238,339.389954 203.991577,339.008728 
	C203.991577,339.008728 203.994614,338.897919 204.815308,339.191956 
	C204.914459,341.330322 204.928391,343.476837 205.131180,345.605347 
	C205.508636,349.567017 206.917084,353.119171 211.055847,354.257355 
	C212.582260,354.677155 214.698837,353.761719 216.231964,352.897675 
	C216.754501,352.603180 216.314850,350.601379 216.314850,349.213470 
	C214.184799,350.020081 212.786942,350.549438 211.389084,351.078766 
	C211.036667,350.774353 210.684250,350.469940 210.331833,350.165558 
	C211.244431,348.749573 212.069717,347.267029 213.088013,345.931702 
	C215.137604,343.243988 217.853989,340.885895 219.180984,337.897034 
	C219.910385,336.254181 219.014206,332.966003 217.659637,331.607849 
	C216.535919,330.481171 213.346100,330.366364 211.654617,331.117065 
	C209.481857,332.081238 207.892136,334.359222 205.317627,335.763184 
	C203.591278,333.883453 202.127670,330.834106 200.082275,330.374603 
	C196.175415,329.496948 193.370880,332.117950 191.454651,336.082306 
	C191.302643,336.391602 191.150635,336.700867 191.002441,337.002289 
	C191.002441,337.002289 191.010605,336.998016 190.459641,337.087402 
	C190.004181,337.354462 189.548706,337.621552 189.005447,337.075897 
	C188.758957,330.941925 188.758957,330.941925 185.286240,331.848389 
	C184.935867,336.261780 184.599716,340.495880 184.263565,344.730011 
	C181.235825,335.545258 181.233322,334.461700 176.814011,335.382996 
	C175.594330,339.354401 174.415558,343.192535 173.236801,347.030701 
	C172.635315,346.863281 172.033829,346.695862 171.432343,346.528442 
	C172.173645,342.571716 173.169098,338.637146 173.516998,334.646118 
	C173.637115,333.268250 172.145798,331.749878 171.390579,330.295685 
	C170.280365,331.344482 168.461334,332.237030 168.189423,333.470612 
	C167.281082,337.591400 166.926636,341.834320 166.304199,346.443695 
	C163.310043,342.338013 160.679138,338.730469 158.816162,334.908783 
	C160.459274,334.601105 162.102371,334.293427 163.963196,333.333588 
	C163.898361,332.885315 163.833527,332.437042 163.845215,331.493286 
	C163.568695,331.329926 163.292175,331.166565 163.005081,330.995117 
	C163.005081,330.995117 162.996002,330.985168 162.641647,330.310120 
	C160.768066,330.538055 158.894485,330.765991 156.414963,331.214874 
	C155.935684,332.123230 155.456421,333.031586 154.349960,334.320435 
	C154.565689,335.877869 154.781418,337.435303 155.085403,339.531158 
	C155.158081,339.697845 155.230774,339.864563 155.196777,340.499268 
	C155.374252,340.802368 155.638412,340.962128 156.181839,341.570312 
	C156.557388,342.057404 156.932938,342.544525 157.195145,343.486694 
	C157.361923,343.814880 157.625015,343.939178 157.986191,344.015656 
	C157.986191,344.015656 158.142242,344.018829 158.175888,344.490051 
	C158.352600,344.811737 158.620712,344.935516 158.982986,345.015656 
M288.003937,349.012054 
	C288.003937,349.012054 288.003967,348.936096 288.578491,348.752319 
	C288.713409,348.173798 288.848328,347.595245 289.549072,346.767181 
	C289.702240,346.177948 289.855408,345.588745 290.781311,345.128571 
	C291.175110,346.662689 291.403625,348.265778 292.007111,349.712402 
	C292.667755,351.296082 293.674744,352.735291 294.530792,354.237457 
	C295.027161,354.050598 295.523529,353.863739 296.019897,353.676880 
	C296.019897,348.433929 295.203125,343.014435 296.285919,338.005554 
	C297.108734,334.199402 295.630920,332.999756 293.213776,331.278656 
	C292.088745,334.767914 291.037933,338.027069 289.398132,340.977386 
	C288.569794,341.505188 287.456726,341.846344 286.965729,342.595306 
	C285.409180,344.969543 284.084961,347.496094 282.514252,350.237244 
	C279.212738,344.231567 280.606506,337.809540 286.142395,332.348267 
	C283.298035,329.014008 280.416351,330.304504 278.779510,333.049774 
	C275.963745,337.772247 274.734955,343.100342 276.942352,348.515778 
	C279.578979,354.984406 282.319946,355.316895 287.488586,349.843933 
	C287.804504,349.657349 287.950989,349.380920 288.003937,349.012054 
M246.702148,143.682938 
	C247.117630,142.658966 247.533112,141.635010 248.067673,140.317551 
	C246.547653,140.176468 245.285629,140.059326 243.716797,139.251755 
	C243.150620,137.218536 242.584442,135.185318 242.191315,133.773529 
	C238.443985,136.620651 234.970673,139.259583 231.259628,142.079147 
	C232.996475,142.690689 234.934387,143.373016 237.025818,144.775421 
	C238.176392,146.970505 239.326965,149.165604 240.477539,151.360687 
	C240.915344,151.283630 241.353165,151.206573 241.790970,151.129517 
	C242.536392,148.775940 243.281815,146.422348 244.690796,144.016708 
	C245.126389,143.949326 245.561966,143.881943 246.702148,143.682938 
M237.100906,229.388733 
	C238.673584,228.462357 240.246262,227.535965 241.818939,226.609589 
	C241.078705,225.860596 240.338470,225.111603 239.598251,224.362610 
	C237.060654,226.892731 234.523071,229.422867 231.314636,232.043365 
	C230.869873,232.106537 230.425095,232.169708 229.327835,232.064117 
	C228.883255,232.103943 228.438690,232.143768 227.508072,232.038406 
	C227.343399,232.076828 227.178726,232.115250 226.393021,231.994659 
	C225.965988,231.977493 225.538971,231.960342 224.623520,231.237320 
	C201.626953,229.864853 182.878616,226.437485 180.074722,222.695099 
	C198.594345,215.293488 217.838730,213.712357 237.350937,213.443481 
	C227.834000,213.000458 218.263382,212.212006 208.886765,213.222977 
	C199.574387,214.227020 190.422379,216.902374 181.286987,219.191742 
	C179.670563,219.596802 177.540619,221.523300 177.248840,223.052658 
	C175.596802,231.711456 175.351089,240.433472 177.980881,249.848206 
	C184.185654,284.356812 221.130936,309.646790 257.779602,296.972687 
	C267.704987,293.160065 276.275299,287.522675 282.637268,278.804474 
	C294.412354,262.668213 299.599396,244.440521 300.043671,224.667526 
	C300.116272,221.435043 298.469757,220.592819 295.463928,221.221725 
	C296.031433,222.310913 296.579834,223.363449 297.118622,224.397537 
	C294.840820,225.624542 292.826874,226.709396 290.812958,227.794250 
	C290.986542,228.213867 291.160095,228.633469 291.333679,229.053085 
	C293.421539,228.709732 295.509399,228.366364 298.502625,227.874100 
	C296.594940,236.448303 295.215515,244.440613 293.012177,252.198929 
	C287.450073,271.784180 276.587921,287.092346 256.169739,295.016632 
	C245.856430,298.764130 235.056030,299.284912 224.741730,296.617432 
	C207.761169,292.225983 194.567490,281.979645 186.186432,266.349670 
	C183.245361,260.864807 181.417496,254.783051 178.968628,248.045761 
	C178.968628,241.436935 178.968628,234.828110 178.968628,227.731079 
	C184.948013,228.669525 190.372299,229.662735 195.835266,230.347412 
	C205.874649,231.605652 215.936783,232.682266 226.717773,233.995804 
	C227.019455,234.654663 227.761230,235.630508 227.551819,235.921249 
	C226.128998,237.896637 224.400024,239.650589 222.965775,241.618759 
	C217.407684,249.246033 211.881851,256.916779 217.004364,267.780212 
	C219.324036,270.219849 221.643707,272.659485 224.331116,275.722290 
	C230.938049,279.157898 237.770950,280.351166 245.713257,277.929199 
	C261.972015,270.978516 270.440094,258.447418 272.845093,240.670929 
	C272.367767,235.858017 273.845764,233.401215 279.378998,233.762573 
	C282.170593,233.944885 285.086090,232.229431 287.945557,231.372086 
	C287.878357,230.945206 287.811188,230.518341 287.743988,230.091476 
	C283.642883,230.684616 279.541779,231.277740 274.822266,231.960312 
	C275.285339,227.323944 275.733368,222.838242 276.201599,218.150177 
	C281.444061,218.828888 286.572601,219.492844 291.701141,220.156799 
	C291.781830,219.469147 291.862549,218.781494 291.943237,218.093857 
	C287.339905,217.372482 282.736542,216.651093 277.728088,215.209412 
	C277.411102,212.439697 277.094086,209.669968 276.895630,206.477875 
	C276.895630,206.477875 276.802582,206.049164 276.981720,205.522125 
	C276.933014,205.343109 276.884277,205.164078 276.963959,204.540009 
	C276.963959,204.540009 277.026489,204.081070 277.709106,203.687820 
	C277.735352,202.120728 277.761597,200.553619 278.075989,198.312851 
	C280.057617,194.895126 282.039246,191.477386 284.658539,187.765991 
	C288.701416,181.187943 292.744263,174.609894 297.002411,167.558060 
	C297.048950,167.390945 297.095459,167.223831 297.749786,166.728516 
	C299.314178,163.773819 300.878571,160.819122 302.398010,157.847992 
	C302.398010,157.847992 302.440002,157.865616 303.033844,157.414413 
	C304.049164,155.249619 304.743073,152.841980 306.153381,150.975647 
	C308.401581,148.000458 307.294708,143.171280 311.890991,141.469116 
	C315.485992,140.137741 315.702850,137.161301 313.619720,134.409927 
	C311.376312,131.446869 308.462067,133.109787 306.831848,134.946625 
	C303.843994,138.313217 301.512451,142.262283 298.423676,146.119034 
	C298.248383,146.399323 298.073059,146.679611 297.288940,147.286072 
	C295.174255,150.812103 293.059601,154.338135 290.467499,158.073608 
	C290.289032,158.359894 290.110565,158.646179 289.309479,159.258698 
	C287.511932,162.497330 285.714386,165.735962 283.328918,169.301758 
	C282.535004,170.859268 281.741089,172.416763 280.321442,174.302765 
	C278.498810,177.849380 276.676178,181.395996 274.281311,185.248291 
	C274.477386,186.480499 274.673492,187.712723 274.229279,189.263763 
	C273.814056,190.819733 273.398834,192.375717 272.286621,194.033707 
	C268.339844,197.718597 264.351685,201.360504 260.462036,205.104752 
	C258.184998,207.296677 256.065063,209.651855 252.988007,211.954620 
	C249.739868,211.954620 246.491714,211.954620 243.243576,211.954620 
	C243.242493,212.503723 243.241425,213.052826 243.240356,213.601929 
	C245.061432,214.159607 246.882492,214.717300 248.658981,215.261322 
	C247.539093,216.678421 246.403366,218.115555 244.513916,220.506424 
	C246.852966,219.761337 248.233887,219.521133 249.417175,218.902771 
	C251.843597,217.634766 254.193939,216.210312 256.494995,214.725357 
	C256.829529,214.509476 256.719696,213.605057 256.946289,212.313080 
	C260.941376,208.532806 264.932129,204.747849 268.966553,201.010071 
	C269.037872,200.943970 269.633820,201.444122 269.374786,202.221100 
	C267.395569,205.500061 265.317963,208.726700 263.522583,212.103394 
	C263.175079,212.756943 263.930267,213.996796 264.042053,215.480759 
	C264.075653,215.654861 264.109222,215.828949 263.836273,216.658051 
	C261.528809,221.092056 259.221344,225.526062 256.369965,230.252426 
	C255.910599,231.147049 255.451218,232.041672 254.101730,233.038376 
	C251.408859,233.038376 248.716003,233.038376 245.011749,233.038376 
	C250.088791,227.309265 254.285782,222.573242 258.482788,217.837204 
	C257.923492,217.331039 257.364197,216.824875 256.804901,216.318710 
	C252.192352,221.512817 247.579788,226.706909 242.311264,232.011032 
	C241.539978,232.396713 240.768692,232.782394 239.346298,232.876663 
	C238.500275,231.919617 237.654236,230.962585 237.100906,229.388733 
M274.385345,332.076416 
	C269.693512,329.318481 265.647308,329.969391 263.346344,334.609680 
	C261.729004,337.871399 260.644073,341.629150 260.340088,345.250916 
	C259.968109,349.682861 263.832123,354.764069 267.238922,354.674835 
	C269.016968,354.628265 270.783112,352.863068 272.462036,351.736206 
	C272.699005,351.577118 272.408295,350.631836 272.361847,350.050446 
	C270.930420,350.383484 269.503876,350.740936 268.063202,351.027466 
	C267.799377,351.079956 267.478210,350.843903 265.858612,350.278748 
	C267.488312,348.028656 268.665710,345.903412 270.309784,344.239319 
	C273.524414,340.985504 276.485962,337.785156 274.385345,332.076416 
M302.863098,185.203857 
	C301.265228,183.665726 300.846436,183.751175 300.075256,186.058975 
	C298.363800,191.180710 298.250031,197.629227 290.200714,197.268173 
	C289.662872,197.244049 289.053436,198.815994 288.477264,199.645584 
	C289.292664,199.917191 290.143372,200.500183 290.917969,200.412262 
	C298.669495,199.532364 298.600708,199.514359 300.193695,207.444199 
	C300.532623,209.131317 301.537415,210.684662 302.235443,212.299622 
	C302.693665,212.131714 303.151886,211.963791 303.610107,211.795868 
	C303.696899,210.681137 303.830658,209.567749 303.862885,208.451447 
	C304.082245,200.853638 304.084290,200.885742 311.382629,198.874130 
	C312.394836,198.595154 313.268311,197.813049 314.206024,197.263855 
	C314.048615,196.838882 313.891235,196.413910 313.733826,195.988937 
	C311.761536,195.988937 309.667419,196.398788 307.855164,195.860291 
	C306.384003,195.423172 304.683441,194.088959 304.101471,192.720245 
	C303.232269,190.675827 303.256348,188.251602 302.863098,185.203857 
M255.064163,173.344788 
	C256.932343,177.386154 259.281372,178.186325 262.084320,174.231354 
	C263.858429,171.728058 265.656067,169.186264 266.962036,166.433487 
	C267.487823,165.325226 267.229248,163.118866 266.424103,162.290543 
	C265.437256,161.275330 263.530182,161.053802 261.971375,160.722885 
	C260.316345,160.371582 258.607574,160.218033 256.914062,160.120255 
	C255.456711,160.036148 253.291245,159.579147 252.687088,160.313690 
	C251.779022,161.417694 251.470703,163.522110 251.786911,165.014847 
	C252.352859,167.686523 253.574097,170.219360 255.064163,173.344788 
M232.256851,331.920837 
	C233.230331,331.330444 234.203812,330.740082 235.030396,330.238770 
	C233.302078,328.974945 232.067093,328.084930 230.846375,327.175720 
	C229.508652,326.179352 228.184052,325.165344 226.853760,324.159027 
	C226.280579,325.553406 225.626419,326.921844 225.167801,328.352905 
	C224.932343,329.087616 225.045944,329.934204 225.016617,330.462891 
	C223.365555,331.063080 222.080032,331.530396 220.794510,331.997711 
	C220.660172,332.394562 220.525833,332.791382 220.391510,333.188232 
	C225.023651,333.890015 225.031204,336.094513 224.375870,339.790588 
	C223.650467,343.881866 224.775848,348.285797 224.962524,352.559357 
	C225.107147,355.870087 226.929184,356.258606 230.092926,355.650146 
	C229.794250,353.539276 229.152832,351.600464 229.324051,349.736237 
	C229.866928,343.824951 230.713196,337.941498 232.256851,331.920837 
M272.031006,129.807098 
	C270.648560,131.665955 269.266113,133.524811 267.781708,135.520737 
	C266.736237,136.118393 265.386139,136.890167 264.036072,137.661957 
	C265.525421,138.299255 267.014740,138.936554 268.058014,139.382965 
	C270.188477,142.268723 272.124084,144.890503 274.429901,148.013779 
	C277.282440,144.335190 280.383606,140.335938 283.593536,136.196472 
	C283.709686,136.337570 283.555237,135.971481 283.291321,135.856461 
	C279.932312,134.392365 276.566254,133.130814 275.311615,128.997818 
	C274.876495,127.564583 273.107666,126.128510 272.031006,129.807098 
M249.858963,350.858917 
	C249.887924,347.693604 249.320404,344.375702 250.082062,341.397797 
	C251.303146,336.623596 255.408447,335.363098 260.732025,335.769684 
	C257.442352,330.512543 254.002853,331.903839 250.637650,333.733582 
	C249.460831,332.430817 248.311264,331.158203 247.097473,329.814514 
	C246.325516,330.480682 245.660172,330.781616 245.649399,331.104431 
	C245.428680,337.710663 244.965195,344.334900 245.286804,350.919556 
	C245.406250,353.365204 247.728729,353.797516 249.858963,350.858917 
M232.080658,191.275269 
	C232.124954,191.936661 232.022446,192.656067 232.254562,193.243210 
	C232.489868,193.838394 233.055832,194.302841 233.065277,194.314545 
	C235.489532,191.248169 237.686584,188.469177 240.048523,185.481628 
	C238.331055,185.248856 236.779663,185.038605 235.384369,184.849487 
	C234.929123,182.816025 234.524048,181.006699 234.074860,179.000259 
	C231.904465,182.141647 230.031662,184.852310 227.925247,187.901123 
	C228.646179,188.351212 230.335983,189.406174 232.080658,191.275269 
z"/>
<path fill="#F3E8E0" opacity="1.000000" stroke="none" 
	d="
M158.048248,335.122925 
	C160.679138,338.730469 163.310043,342.338013 166.304199,346.443695 
	C166.926636,341.834320 167.281082,337.591400 168.189423,333.470612 
	C168.461334,332.237030 170.280365,331.344482 171.390579,330.295685 
	C172.145798,331.749878 173.637115,333.268250 173.516998,334.646118 
	C173.169098,338.637146 172.173645,342.571716 171.432343,346.528442 
	C172.033829,346.695862 172.635315,346.863281 173.236801,347.030701 
	C174.415558,343.192535 175.594330,339.354401 176.814011,335.382996 
	C181.233322,334.461700 181.235825,335.545258 184.263565,344.730011 
	C184.599716,340.495880 184.935867,336.261780 185.286240,331.848389 
	C188.758957,330.941925 188.758957,330.941925 189.027252,337.928864 
	C188.710434,342.217224 188.371796,345.652618 188.033173,349.088013 
	C186.227890,350.674561 183.935791,353.867706 182.722595,353.500122 
	C180.466995,352.816711 178.840378,350.057526 176.781937,347.991913 
	C176.843292,347.884003 176.293320,348.686005 175.906021,349.560059 
	C173.794937,354.324860 171.891602,354.835876 168.011307,351.507080 
	C166.718475,350.398010 165.594788,348.706055 164.105392,351.960022 
	C163.300323,352.392029 163.113724,352.639679 163.012421,352.951599 
	C163.012421,352.951599 163.011932,353.010315 162.663528,353.000458 
	C161.547195,353.263916 160.779282,353.537231 160.011353,353.810547 
	C158.091400,353.100037 156.171432,352.389496 154.131561,351.006714 
	C154.609619,349.559082 155.207611,348.783752 155.805603,348.008423 
	C155.805603,348.008423 155.998779,348.416382 156.153595,348.900024 
	C156.832001,349.589569 157.355606,349.795502 157.879196,350.001434 
	C157.879196,350.001434 158.024353,349.998352 158.171753,350.269348 
	C158.866669,350.418640 159.414215,350.296906 159.961746,350.175171 
	C159.961746,350.175171 159.971771,349.993683 160.370911,349.950989 
	C160.873947,348.946136 160.977829,347.983948 161.081726,347.021759 
	C161.081726,347.021759 160.987564,347.017670 160.894547,346.771362 
	C160.627029,346.274170 160.393707,346.103882 160.101562,346.014160 
	C160.101562,346.014160 159.987091,346.011932 159.898270,345.762268 
	C159.643112,345.269379 159.419022,345.104675 159.137177,345.018524 
	C159.137177,345.018524 158.982986,345.015656 158.894379,344.752197 
	C158.639008,344.255280 158.417831,344.098633 158.142242,344.018829 
	C158.142242,344.018829 157.986191,344.015656 157.921906,343.764893 
	C157.725464,343.295410 157.542419,343.134583 157.308487,343.031616 
	C156.932938,342.544525 156.557388,342.057404 156.023987,341.082581 
	C155.739365,340.346375 155.551804,340.158508 155.303467,340.031311 
	C155.230774,339.864563 155.158081,339.697845 155.046722,338.841980 
	C154.997726,336.748535 154.987427,335.344208 154.977142,333.939911 
	C155.456421,333.031586 155.935684,332.123230 157.144348,331.109955 
	C159.581161,330.998413 161.288589,330.991791 162.996002,330.985168 
	C162.996002,330.985168 163.005081,330.995117 163.082275,331.199890 
	C163.303497,331.660919 163.506577,331.855652 163.768692,331.988770 
	C163.833527,332.437042 163.898361,332.885315 163.498962,333.601807 
	C161.189499,333.558990 158.872269,331.369507 158.048248,335.122925 
z"/>
<path fill="#E0C1AE" opacity="1.000000" stroke="none" 
	d="
M225.989441,233.834595 
	C215.936783,232.682266 205.874649,231.605652 195.835266,230.347412 
	C190.372299,229.662735 184.948013,228.669525 178.968628,227.731079 
	C178.968628,234.828110 178.968628,241.436935 178.738708,248.523682 
	C178.317902,249.009964 178.127014,249.018326 177.936142,249.026688 
	C175.351089,240.433472 175.596802,231.711456 177.248840,223.052658 
	C177.540619,221.523300 179.670563,219.596802 181.286987,219.191742 
	C190.422379,216.902374 199.574387,214.227020 208.886765,213.222977 
	C218.263382,212.212006 227.834000,213.000458 237.350937,213.443481 
	C217.838730,213.712357 198.594345,215.293488 180.074722,222.695099 
	C182.878616,226.437485 201.626953,229.864853 224.699249,231.724792 
	C225.179810,232.753036 225.584625,233.293823 225.989441,233.834595 
z"/>
<path fill="#F3E8E0" opacity="1.000000" stroke="none" 
	d="
M314.021606,345.057068 
	C313.019684,346.508789 312.339661,348.628113 310.958832,349.293915 
	C305.641602,351.857544 306.075928,356.500977 305.932556,361.110229 
	C305.882538,362.718536 305.354706,364.312012 305.045105,365.912262 
	C304.296234,365.976227 303.547363,366.040161 302.798492,366.104126 
	C302.247894,363.713715 301.693909,361.324066 301.147675,358.932709 
	C300.609955,356.578827 300.038513,354.231415 299.568481,351.863953 
	C299.393768,350.984131 299.058167,349.717468 299.486908,349.201782 
	C303.467499,344.414215 303.509033,339.766113 299.705902,334.822601 
	C299.251404,334.231812 300.038391,331.613190 300.654541,331.448517 
	C304.196411,330.501892 307.927979,328.843750 311.786133,332.268555 
	C312.428619,332.823608 312.664185,332.949677 312.944244,332.992676 
	C312.944244,332.992676 313.010162,332.991943 313.101257,333.232819 
	C313.371368,333.735992 313.614166,333.908508 313.920776,333.991241 
	C313.920776,333.991241 313.999054,333.993073 314.010193,334.317871 
	C314.330933,335.090881 314.640564,335.539093 314.950165,335.987335 
	C314.950165,335.987335 315.009186,335.988861 314.991577,336.438049 
	C314.656494,339.610504 314.339050,342.333771 314.021606,345.057068 
M306.911682,340.377991 
	C306.911682,342.130554 306.911682,343.883148 306.911682,346.100494 
	C310.859680,343.765869 311.533478,340.462311 310.941742,336.987793 
	C310.722168,335.698486 309.020111,334.661621 307.994141,333.509644 
	C307.639252,333.712433 307.284393,333.915253 306.929504,334.118042 
	C306.929504,335.904327 306.929504,337.690582 306.911682,340.377991 
z"/>
<path fill="#EFE0D6" opacity="1.000000" stroke="none" 
	d="
M314.339722,344.895874 
	C314.339050,342.333771 314.656494,339.610504 314.987793,336.467285 
	C315.449402,338.180573 315.897186,340.313782 316.414673,342.778992 
	C316.996979,340.501282 317.443146,338.437347 318.057068,336.424591 
	C319.144897,332.858185 321.314575,330.095123 325.256958,330.236694 
	C326.997864,330.299225 330.151520,332.063416 330.121277,332.970337 
	C330.016327,336.118500 329.044189,339.324951 327.892548,342.312897 
	C327.348053,343.725677 325.460846,344.562073 324.524597,345.899445 
	C323.596497,347.225128 323.099152,348.852325 323.346222,351.068115 
	C324.487610,350.524353 325.628967,349.980621 327.766541,348.962250 
	C327.479279,350.852844 327.717133,352.551544 327.015747,353.150604 
	C325.920380,354.086212 323.476898,355.140686 322.854462,354.627869 
	C320.617310,352.784637 318.873779,350.330414 317.006500,348.055511 
	C316.148499,347.010223 315.436249,345.845306 314.339722,344.895874 
z"/>
<path fill="#E2C6B4" opacity="1.000000" stroke="none" 
	d="
M256.963318,294.901001 
	C276.587921,287.092346 287.450073,271.784180 293.012177,252.198929 
	C295.215515,244.440613 296.594940,236.448303 298.502625,227.874100 
	C295.509399,228.366364 293.421539,228.709732 291.333679,229.053085 
	C291.160095,228.633469 290.986542,228.213867 290.812958,227.794250 
	C292.826874,226.709396 294.840820,225.624542 297.118622,224.397537 
	C296.579834,223.363449 296.031433,222.310913 295.463928,221.221725 
	C298.469757,220.592819 300.116272,221.435043 300.043671,224.667526 
	C299.599396,244.440521 294.412354,262.668213 282.637268,278.804474 
	C276.275299,287.522675 267.704987,293.160065 257.393768,296.668732 
	C256.993073,295.876862 256.978210,295.388916 256.963318,294.901001 
z"/>
<path fill="#EFE0D6" opacity="1.000000" stroke="none" 
	d="
M206.051239,336.071198 
	C207.892136,334.359222 209.481857,332.081238 211.654617,331.117065 
	C213.346100,330.366364 216.535919,330.481171 217.659637,331.607849 
	C219.014206,332.966003 219.910385,336.254181 219.180984,337.897034 
	C217.853989,340.885895 215.137604,343.243988 213.088013,345.931702 
	C212.069717,347.267029 211.244431,348.749573 210.331833,350.165558 
	C210.684250,350.469940 211.036667,350.774353 211.389084,351.078766 
	C212.786942,350.549438 214.184799,350.020081 216.314850,349.213470 
	C216.314850,350.601379 216.754501,352.603180 216.231964,352.897675 
	C214.698837,353.761719 212.582260,354.677155 211.055847,354.257355 
	C206.917084,353.119171 205.508636,349.567017 205.131180,345.605347 
	C204.928391,343.476837 204.914459,341.330322 204.395508,338.715149 
	C203.995407,337.798431 204.015106,337.358582 204.328064,337.083008 
	C205.008270,337.426849 205.395218,337.606384 205.782166,337.785919 
	C205.868546,337.175507 205.954926,336.565094 206.061829,335.982269 
	C206.082336,336.009857 206.051239,336.071198 206.051239,336.071198 
z"/>
<path fill="#F0E2D8" opacity="1.000000" stroke="none" 
	d="
M274.609863,332.382751 
	C276.485962,337.785156 273.524414,340.985504 270.309784,344.239319 
	C268.665710,345.903412 267.488312,348.028656 265.858612,350.278748 
	C267.478210,350.843903 267.799377,351.079956 268.063202,351.027466 
	C269.503876,350.740936 270.930420,350.383484 272.361816,350.050446 
	C272.408295,350.631836 272.699005,351.577118 272.462036,351.736206 
	C270.783112,352.863068 269.016968,354.628265 267.238922,354.674835 
	C263.832123,354.764069 259.968109,349.682861 260.340088,345.250916 
	C260.644073,341.629150 261.729004,337.871399 263.346344,334.609680 
	C265.647308,329.969391 269.693512,329.318481 274.609863,332.382751 
z"/>
<path fill="#E2C5B3" opacity="1.000000" stroke="none" 
	d="
M256.566528,294.958801 
	C256.978210,295.388916 256.993073,295.876862 257.019592,296.730713 
	C221.130936,309.646790 184.185654,284.356812 177.958511,249.437439 
	C178.127014,249.018326 178.317902,249.009964 178.795044,248.987717 
	C181.417496,254.783051 183.245361,260.864807 186.186432,266.349670 
	C194.567490,281.979645 207.761169,292.225983 224.741730,296.617432 
	C235.056030,299.284912 245.856430,298.764130 256.566528,294.958801 
z"/>
<path fill="#F2E6DE" opacity="1.000000" stroke="none" 
	d="
M204.034805,336.918701 
	C204.015106,337.358582 203.995407,337.798431 203.985168,338.568115 
	C203.994614,338.897919 203.991577,339.008728 203.734497,339.123199 
	C203.235245,339.447479 203.081039,339.709137 203.014771,340.022705 
	C201.301529,341.872589 199.471252,343.630310 197.916275,345.604858 
	C196.885483,346.913818 196.249039,348.533295 195.436050,350.013763 
	C197.098129,350.013763 198.760193,350.013763 201.197098,350.013763 
	C201.223572,350.478485 201.812592,352.363831 201.258682,352.800995 
	C199.983414,353.807495 197.744904,355.009064 196.634216,354.505615 
	C194.505478,353.540710 192.889267,351.445068 190.996170,349.057220 
	C190.958176,344.529907 190.984390,340.763947 191.010605,336.998016 
	C191.010605,336.998016 191.002441,337.002289 191.256760,336.927734 
	C191.663879,336.539642 191.816681,336.226135 191.969452,335.912598 
	C193.370880,332.117950 196.175415,329.496948 200.082275,330.374603 
	C202.127670,330.834106 203.591278,333.883453 205.684433,335.917175 
	C206.051239,336.071198 206.082336,336.009857 205.820648,335.661926 
	C205.050903,335.848907 204.542862,336.383820 204.034805,336.918701 
z"/>
<path fill="#F1E3DA" opacity="1.000000" stroke="none" 
	d="
M302.881775,185.596405 
	C303.256348,188.251602 303.232269,190.675827 304.101471,192.720245 
	C304.683441,194.088959 306.384003,195.423172 307.855164,195.860291 
	C309.667419,196.398788 311.761536,195.988937 313.733826,195.988937 
	C313.891235,196.413910 314.048615,196.838882 314.206024,197.263855 
	C313.268311,197.813049 312.394836,198.595154 311.382629,198.874130 
	C304.084290,200.885742 304.082245,200.853638 303.862885,208.451447 
	C303.830658,209.567749 303.696899,210.681137 303.610107,211.795868 
	C303.151886,211.963791 302.693665,212.131714 302.235443,212.299622 
	C301.537415,210.684662 300.532623,209.131317 300.193695,207.444199 
	C298.600708,199.514359 298.669495,199.532364 290.917969,200.412262 
	C290.143372,200.500183 289.292664,199.917191 288.477264,199.645584 
	C289.053436,198.815994 289.662872,197.244049 290.200714,197.268173 
	C298.250031,197.629227 298.363800,191.180710 300.075256,186.058975 
	C300.846436,183.751175 301.265228,183.665726 302.881775,185.596405 
z"/>
<path fill="#F7EFE9" opacity="1.000000" stroke="none" 
	d="
M254.792786,173.077515 
	C253.574097,170.219360 252.352859,167.686523 251.786911,165.014847 
	C251.470703,163.522110 251.779022,161.417694 252.687088,160.313690 
	C253.291245,159.579147 255.456711,160.036148 256.914062,160.120255 
	C258.607574,160.218033 260.316345,160.371582 261.971375,160.722885 
	C263.530182,161.053802 265.437256,161.275330 266.424103,162.290543 
	C267.229248,163.118866 267.487823,165.325226 266.962036,166.433487 
	C265.656067,169.186264 263.858429,171.728058 262.084320,174.231354 
	C259.281372,178.186325 256.932343,177.386154 254.792786,173.077515 
z"/>
<path fill="#E1C3B0" opacity="1.000000" stroke="none" 
	d="
M278.133209,215.929718 
	C282.736542,216.651093 287.339905,217.372482 291.943237,218.093857 
	C291.862549,218.781494 291.781830,219.469147 291.701141,220.156799 
	C286.572601,219.492844 281.444061,218.828888 276.201599,218.150177 
	C275.733368,222.838242 275.285339,227.323944 274.822266,231.960312 
	C279.541779,231.277740 283.642883,230.684616 287.743988,230.091476 
	C287.811188,230.518341 287.878357,230.945206 287.945557,231.372086 
	C285.086090,232.229431 282.170593,233.944885 279.378998,233.762573 
	C273.845764,233.401215 272.367767,235.858017 272.238647,240.726044 
	C271.407074,240.484436 271.181915,240.187729 270.959473,239.526428 
	C270.320953,237.794052 269.679718,236.426270 268.838593,234.776245 
	C267.732910,232.989288 266.827057,231.484573 265.965302,229.586090 
	C266.727203,226.799164 267.445038,224.406006 268.456421,222.042450 
	C269.187775,222.423080 269.625519,222.774109 270.024292,223.528961 
	C269.627136,225.975677 269.175720,228.008545 268.954742,230.066162 
	C268.861176,230.937332 269.251862,231.860489 269.422424,232.760025 
	C270.292084,232.064728 271.695282,231.513840 271.929993,230.646667 
	C272.599731,228.172241 272.794159,225.569153 273.400452,222.718658 
	C272.970581,219.970505 272.315826,217.520401 271.661102,215.070282 
	C271.164398,215.023987 270.667694,214.977692 270.170990,214.931412 
	C271.719482,213.571625 273.267975,212.211838 274.432251,211.189438 
	C275.977905,213.169144 277.055573,214.549423 278.133209,215.929718 
z"/>
<path fill="#F1E3DA" opacity="1.000000" stroke="none" 
	d="
M231.849518,331.984070 
	C230.713196,337.941498 229.866928,343.824951 229.324051,349.736237 
	C229.152832,351.600464 229.794250,353.539276 230.092926,355.650146 
	C226.929184,356.258606 225.107147,355.870087 224.962524,352.559357 
	C224.775848,348.285797 223.650467,343.881866 224.375870,339.790588 
	C225.031204,336.094513 225.023651,333.890015 220.391510,333.188232 
	C220.525833,332.791382 220.660172,332.394562 220.794510,331.997711 
	C222.080032,331.530396 223.365555,331.063080 225.016617,330.462891 
	C225.045944,329.934204 224.932343,329.087616 225.167801,328.352905 
	C225.626419,326.921844 226.280579,325.553406 226.853760,324.159027 
	C228.184052,325.165344 229.508652,326.179352 230.846375,327.175720 
	C232.067093,328.084930 233.302078,328.974945 235.030396,330.238770 
	C234.203812,330.740082 233.230331,331.330444 231.849518,331.984070 
z"/>
<path fill="#DCBAA4" opacity="1.000000" stroke="none" 
	d="
M272.042419,129.426086 
	C273.107666,126.128510 274.876495,127.564583 275.311615,128.997818 
	C276.566254,133.130814 279.932312,134.392365 283.291321,135.856461 
	C283.555237,135.971481 283.709686,136.337570 283.593536,136.196472 
	C280.383606,140.335938 277.282440,144.335190 274.429901,148.013779 
	C272.124084,144.890503 270.188477,142.268723 268.058014,139.382965 
	C267.014740,138.936554 265.525421,138.299255 264.036072,137.661957 
	C265.386139,136.890167 266.736237,136.118393 267.781708,135.520737 
	C269.266113,133.524811 270.648560,131.665955 272.042419,129.426086 
z"/>
<path fill="#F2E6DE" opacity="1.000000" stroke="none" 
	d="
M290.008545,344.999512 
	C289.855408,345.588745 289.702240,346.177948 289.030151,347.052979 
	C288.342133,347.871216 288.173065,348.403656 288.003967,348.936096 
	C288.003967,348.936096 288.003937,349.012054 287.762421,349.116577 
	C287.269348,349.413940 287.100128,349.662750 287.013245,349.967560 
	C282.319946,355.316895 279.578979,354.984406 276.942352,348.515778 
	C274.734955,343.100342 275.963745,337.772247 278.779510,333.049774 
	C280.416351,330.304504 283.298035,329.014008 286.142395,332.348267 
	C280.606506,337.809540 279.212738,344.231567 282.514252,350.237244 
	C284.084961,347.496094 285.409180,344.969543 286.965729,342.595306 
	C287.456726,341.846344 288.569794,341.505188 289.690125,341.503296 
	C289.990936,343.019287 289.999725,344.009399 290.008545,344.999512 
z"/>
<path fill="#F0E2D8" opacity="1.000000" stroke="none" 
	d="
M249.747253,351.278564 
	C247.728729,353.797516 245.406250,353.365204 245.286804,350.919556 
	C244.965195,344.334900 245.428680,337.710663 245.649399,331.104431 
	C245.660172,330.781616 246.325516,330.480682 247.097473,329.814514 
	C248.311264,331.158203 249.460831,332.430817 250.637650,333.733582 
	C254.002853,331.903839 257.442352,330.512543 260.732025,335.769684 
	C255.408447,335.363098 251.303146,336.623596 250.082062,341.397797 
	C249.320404,344.375702 249.887924,347.693604 249.747253,351.278564 
z"/>
<path fill="#E1C3B0" opacity="1.000000" stroke="none" 
	d="
M298.907257,145.968491 
	C301.512451,142.262283 303.843994,138.313217 306.831848,134.946625 
	C308.462067,133.109787 311.376312,131.446869 313.619720,134.409927 
	C315.702850,137.161301 315.485992,140.137741 311.890991,141.469116 
	C307.294708,143.171280 308.401581,148.000458 306.153381,150.975647 
	C304.743073,152.841980 304.049164,155.249619 302.656250,157.258698 
	C302.002563,154.060196 301.885193,150.988724 301.343933,147.993881 
	C301.200104,147.197952 299.754944,146.637207 298.907257,145.968491 
M304.220825,150.447495 
	C304.791870,148.494186 305.362915,146.540863 305.933960,144.587555 
	C305.127533,144.450500 304.321106,144.313446 303.514679,144.176376 
	C303.514679,146.210907 303.514679,148.245438 304.220825,150.447495 
z"/>
<path fill="#E1C3B0" opacity="1.000000" stroke="none" 
	d="
M223.963379,275.099121 
	C221.643707,272.659485 219.324036,270.219849 217.256363,267.397827 
	C217.735931,266.986053 217.963501,266.956696 218.559448,266.964661 
	C220.037430,268.083008 221.147049,269.163940 222.470627,270.453339 
	C224.163589,257.090546 230.328186,246.700806 238.246216,236.983795 
	C238.979294,236.993607 239.398224,236.996872 239.813660,237.350220 
	C237.601135,240.904190 235.200043,243.994461 233.223175,247.335724 
	C229.129013,254.255569 224.537155,261.099121 226.415909,270.654877 
	C227.693115,269.446625 228.455093,268.725769 229.504211,268.045654 
	C230.216660,268.442108 230.641968,268.797852 231.027740,269.496887 
	C230.686127,270.881378 230.384064,271.922577 229.854095,273.081238 
	C229.417206,273.464600 229.208252,273.730469 228.741104,273.998779 
	C228.310822,274.005371 228.138733,274.009521 227.596649,274.010071 
	C226.138901,274.370697 225.051132,274.734894 223.963379,275.099121 
z"/>
<path fill="#EFE0D6" opacity="1.000000" stroke="none" 
	d="
M272.983612,193.931686 
	C273.398834,192.375717 273.814056,190.819733 274.907623,189.110229 
	C276.394196,188.317947 277.202423,187.679230 278.277344,187.131012 
	C279.446503,186.653091 280.348969,186.084671 281.692108,185.238693 
	C282.420563,186.121140 283.220703,187.090393 284.020874,188.059662 
	C282.039246,191.477386 280.057617,194.895126 277.693787,198.938553 
	C277.216583,201.069855 277.121552,202.575470 277.026489,204.081070 
	C277.026489,204.081070 276.963959,204.540009 276.753113,204.863144 
	C276.491852,205.293106 276.371307,205.435684 276.404114,205.500092 
	C276.505524,205.699142 276.665405,205.868362 276.802582,206.049164 
	C276.802582,206.049164 276.895630,206.477875 276.538330,206.654205 
	C275.442352,206.536972 274.703674,206.243393 273.785614,205.942459 
	C273.606262,205.935104 273.247589,205.949524 273.157043,205.658875 
	C272.712067,204.920944 272.357666,204.473648 271.979370,203.693665 
	C271.623444,202.540543 271.291321,201.720139 270.973083,200.605133 
	C270.697479,199.898788 270.407990,199.487030 269.941223,198.886078 
	C270.837158,197.108490 271.910400,195.520096 272.983612,193.931686 
z"/>
<path fill="#DFC0AC" opacity="1.000000" stroke="none" 
	d="
M297.141998,167.056717 
	C297.095459,167.223831 297.048950,167.390945 296.589111,167.818207 
	C294.980408,168.321976 293.784973,168.565613 292.862122,168.753693 
	C291.641815,171.001999 290.270172,173.529129 288.574402,176.029663 
	C287.498322,175.663391 286.746399,175.323685 285.843811,174.647125 
	C285.101074,172.531708 284.508942,170.753159 283.916840,168.974594 
	C285.714386,165.735962 287.511932,162.497330 289.669922,159.143219 
	C290.030365,159.027725 290.129486,159.121506 290.114014,159.350342 
	C290.252960,159.807144 290.407410,160.035095 290.561829,160.263046 
	C290.694855,159.855255 290.827881,159.447449 290.973022,159.027359 
	C290.985138,159.015076 291.010223,158.989700 291.299866,158.869843 
	C292.377838,158.515213 293.166199,158.280411 293.965027,158.364120 
	C294.303070,159.802948 294.630646,160.923264 294.995544,162.332214 
	C295.342865,163.088318 295.652863,163.555771 295.974976,164.371368 
	C296.372101,165.498566 296.757050,166.277634 297.141998,167.056717 
z"/>
<path fill="#E8D1C2" opacity="1.000000" stroke="none" 
	d="
M288.898560,176.056244 
	C290.270172,173.529129 291.641815,171.001999 292.862122,168.753693 
	C293.784973,168.565613 294.980408,168.321976 296.481476,168.055099 
	C292.744263,174.609894 288.701416,181.187943 284.339691,187.912827 
	C283.220703,187.090393 282.420563,186.121140 281.692108,185.238693 
	C280.348969,186.084671 279.446503,186.653091 278.206116,186.776901 
	C276.863312,185.869064 275.858429,185.405823 274.853577,184.942596 
	C276.676178,181.395996 278.498810,177.849380 280.935211,174.176559 
	C281.749146,174.079132 281.949341,174.107910 282.075592,174.475464 
	C282.418945,177.746140 282.836243,180.678040 283.253540,183.609940 
	C283.667755,183.472519 284.081940,183.335114 284.496155,183.197708 
	C285.963623,180.817215 287.431091,178.436737 288.898560,176.056244 
z"/>
<path fill="#E0C1AE" opacity="1.000000" stroke="none" 
	d="
M239.817154,237.000153 
	C239.398224,236.996872 238.979294,236.993607 238.296631,236.660538 
	C237.992920,235.898071 237.952942,235.465408 238.224503,234.987747 
	C239.023163,234.351196 239.510284,233.759628 239.997406,233.168091 
	C240.768692,232.782394 241.539978,232.396713 242.647614,232.289764 
	C242.986328,233.013611 242.988708,233.458725 242.909821,234.198090 
	C246.892410,235.333282 250.956268,236.174255 254.899658,237.344452 
	C252.791824,240.616119 250.946396,243.667374 248.789749,246.479996 
	C242.952942,254.092041 236.983871,261.602692 231.067276,269.153564 
	C230.641968,268.797852 230.216660,268.442108 229.517029,267.713135 
	C238.604462,258.347015 245.269012,247.401718 253.241730,235.345078 
	C247.699402,236.028381 243.758270,236.514267 239.817154,237.000153 
z"/>
<path fill="#DFC0AC" opacity="1.000000" stroke="none" 
	d="
M270.956757,239.891022 
	C271.181915,240.187729 271.407074,240.484436 271.878296,240.919159 
	C270.440094,258.447418 261.972015,270.978516 245.313217,277.587891 
	C244.590775,276.816376 244.268372,276.386230 244.118683,275.626190 
	C251.418610,273.324341 257.080017,269.401245 261.404877,263.294525 
	C266.432587,256.195343 268.623779,248.037048 270.956757,239.891022 
z"/>
<path fill="#F0E2D8" opacity="1.000000" stroke="none" 
	d="
M290.394928,345.064026 
	C289.999725,344.009399 289.990936,343.019287 289.984619,341.657715 
	C291.037933,338.027069 292.088745,334.767914 293.213776,331.278656 
	C295.630920,332.999756 297.108734,334.199402 296.285919,338.005554 
	C295.203125,343.014435 296.019897,348.433929 296.019897,353.676880 
	C295.523529,353.863739 295.027161,354.050598 294.530792,354.237457 
	C293.674744,352.735291 292.667755,351.296082 292.007111,349.712402 
	C291.403625,348.265778 291.175110,346.662689 290.394928,345.064026 
z"/>
<path fill="#E5CCBB" opacity="1.000000" stroke="none" 
	d="
M218.191071,266.927307 
	C217.963501,266.956696 217.735931,266.986053 217.166351,267.052368 
	C211.881851,256.916779 217.407684,249.246033 222.965775,241.618759 
	C224.400024,239.650589 226.128998,237.896637 227.551819,235.921249 
	C227.761230,235.630508 227.019455,234.654663 226.353607,233.915192 
	C225.584625,233.293823 225.179810,232.753036 224.943466,232.077728 
	C225.538971,231.960342 225.965988,231.977493 226.796021,232.211823 
	C227.199020,232.428986 227.645081,232.512726 227.645081,232.512726 
	C227.645081,232.512726 227.994110,232.183594 227.994110,232.183594 
	C228.438690,232.143768 228.883255,232.103943 229.710052,232.446014 
	C230.735809,233.576828 231.379333,234.325760 231.886429,235.377335 
	C229.984512,237.441391 228.099472,239.099609 226.474640,240.982407 
	C220.040695,248.437775 214.566971,256.243134 218.191071,266.927307 
z"/>
<path fill="#D9B39B" opacity="1.000000" stroke="none" 
	d="
M273.964966,205.949814 
	C274.703674,206.243393 275.442352,206.536972 276.479065,206.865402 
	C277.094086,209.669968 277.411102,212.439697 277.930664,215.569565 
	C277.055573,214.549423 275.977905,213.169144 274.432251,211.189438 
	C273.267975,212.211838 271.719482,213.571625 270.170990,214.931412 
	C270.667694,214.977692 271.164398,215.023987 271.661102,215.070282 
	C272.315826,217.520401 272.970581,219.970505 273.329895,222.329742 
	C273.034515,220.967789 273.034515,219.696732 273.034515,217.926895 
	C271.853271,219.993530 270.958282,221.559341 270.063293,223.125153 
	C269.625519,222.774109 269.187775,222.423080 268.387756,221.692566 
	C268.332184,220.506027 268.638855,219.698990 269.099884,219.110168 
	C269.692444,219.199951 270.130646,219.071518 270.568848,218.943085 
	C270.103729,218.634338 269.638580,218.325607 269.037354,217.714691 
	C267.948822,217.644714 266.996460,217.876907 265.999786,217.791626 
	C265.351288,216.983765 264.747040,216.493393 264.142822,216.003021 
	C264.109222,215.828949 264.075653,215.654861 264.469513,215.218430 
	C266.141663,213.891357 267.612915,212.997498 268.576141,211.720444 
	C269.908386,209.954132 270.858093,207.899307 271.994202,206.311981 
	C272.380341,207.257431 272.743958,207.858902 273.107574,208.460388 
	C273.393372,207.623535 273.679169,206.786667 273.964966,205.949814 
z"/>
<path fill="#EAD6C9" opacity="1.000000" stroke="none" 
	d="
M232.053223,190.868195 
	C230.335983,189.406174 228.646179,188.351212 227.925247,187.901123 
	C230.031662,184.852310 231.904465,182.141647 234.074860,179.000259 
	C234.524048,181.006699 234.929123,182.816025 235.384369,184.849487 
	C236.779663,185.038605 238.331055,185.248856 240.048523,185.481628 
	C237.686584,188.469177 235.489532,191.248169 233.065277,194.314545 
	C233.055832,194.302841 232.489868,193.838394 232.254562,193.243210 
	C232.022446,192.656067 232.124954,191.936661 232.053223,190.868195 
z"/>
<path fill="#E0C1AE" opacity="1.000000" stroke="none" 
	d="
M272.635132,193.982697 
	C271.910400,195.520096 270.837158,197.108490 269.667725,199.333221 
	C269.720184,200.504776 269.868866,201.040024 270.012115,201.627808 
	C270.006683,201.680374 269.984955,201.680054 269.984955,201.680054 
	C269.633820,201.444122 269.037872,200.943970 268.966553,201.010071 
	C264.932129,204.747849 260.941376,208.532806 256.566284,212.628708 
	C255.415665,212.607437 254.645081,212.270523 253.874496,211.933609 
	C256.065063,209.651855 258.184998,207.296677 260.462036,205.104752 
	C264.351685,201.360504 268.339844,197.718597 272.635132,193.982697 
z"/>
<path fill="#E1C3B0" opacity="1.000000" stroke="none" 
	d="
M242.991089,233.903854 
	C242.988708,233.458725 242.986328,233.013611 242.975586,232.234741 
	C247.579788,226.706909 252.192352,221.512817 256.804901,216.318710 
	C257.364197,216.824875 257.923492,217.331039 258.482788,217.837204 
	C254.285782,222.573242 250.088791,227.309265 245.011749,233.038376 
	C248.716003,233.038376 251.408859,233.038376 254.269897,233.295547 
	C250.622391,233.669769 246.806747,233.786804 242.991089,233.903854 
z"/>
<path fill="#E8D1C2" opacity="1.000000" stroke="none" 
	d="
M269.679871,201.950577 
	C269.984955,201.680054 270.006683,201.680374 270.217010,201.416626 
	C270.604614,201.068481 270.781921,200.984100 270.959229,200.899719 
	C271.291321,201.720139 271.623444,202.540543 271.985321,204.019226 
	C272.000244,205.111938 271.985382,205.546417 271.978821,205.987579 
	C271.987091,205.994278 271.971649,205.968033 271.971649,205.968033 
	C270.858093,207.899307 269.908386,209.954132 268.576141,211.720444 
	C267.612915,212.997498 266.141663,213.891357 264.536896,214.961151 
	C263.930267,213.996796 263.175079,212.756943 263.522583,212.103394 
	C265.317963,208.726700 267.395569,205.500061 269.679871,201.950577 
z"/>
<path fill="#EAD6C9" opacity="1.000000" stroke="none" 
	d="
M242.909821,234.198090 
	C246.806747,233.786804 250.622391,233.669769 254.714951,233.244507 
	C255.451218,232.041672 255.910599,231.147049 256.912964,230.269470 
	C257.643311,230.877777 257.830658,231.469040 258.148499,232.454987 
	C261.295929,233.143539 264.667206,234.380875 265.921204,229.979858 
	C266.827057,231.484573 267.732910,232.989288 268.830353,234.754868 
	C269.021973,235.015732 269.060486,235.039536 268.697815,235.024811 
	C267.572571,235.697144 266.810028,236.384216 266.024719,237.037720 
	C266.001984,237.004166 266.066956,237.052658 265.750031,236.824860 
	C261.866119,234.424683 258.345306,233.387619 255.007172,237.010849 
	C254.999969,237.000992 255.020126,237.015213 255.020126,237.015213 
	C250.956268,236.174255 246.892410,235.333282 242.909821,234.198090 
z"/>
<path fill="#E8D1C2" opacity="1.000000" stroke="none" 
	d="
M253.431244,211.944122 
	C254.645081,212.270523 255.415665,212.607437 256.500854,212.981796 
	C256.719696,213.605057 256.829529,214.509476 256.494995,214.725357 
	C254.193939,216.210312 251.843597,217.634766 249.417175,218.902771 
	C248.233887,219.521133 246.852966,219.761337 244.513916,220.506424 
	C246.403366,218.115555 247.539093,216.678421 248.658981,215.261322 
	C246.882492,214.717300 245.061432,214.159607 243.240356,213.601929 
	C243.241425,213.052826 243.242493,212.503723 243.243576,211.954620 
	C246.491714,211.954620 249.739868,211.954620 253.431244,211.944122 
z"/>
<path fill="#E0C1AE" opacity="1.000000" stroke="none" 
	d="
M236.872299,144.055328 
	C234.934387,143.373016 232.996475,142.690689 231.259628,142.079147 
	C234.970673,139.259583 238.443985,136.620651 242.191315,133.773529 
	C242.584442,135.185318 243.150620,137.218536 243.862320,139.936478 
	C243.998047,141.073715 243.988251,141.526230 243.656525,141.931137 
	C242.320450,140.934784 241.306320,139.986053 240.292191,139.037308 
	C240.806702,139.479843 241.321228,139.922379 241.835739,140.364929 
	C240.558182,140.908340 239.280624,141.451736 237.831039,141.771637 
	C237.143631,141.507599 236.628250,141.467102 236.112869,141.426605 
	C236.109634,141.581192 236.106384,141.735794 236.103149,141.890381 
	C236.733612,141.928757 237.364059,141.967133 237.962814,142.314606 
	C237.578171,143.100906 237.225235,143.578110 236.872299,144.055328 
z"/>
<path fill="#DFC0AC" opacity="1.000000" stroke="none" 
	d="
M238.003067,141.995148 
	C239.280624,141.451736 240.558182,140.908340 241.835739,140.364929 
	C241.321228,139.922379 240.806702,139.479843 240.292191,139.037308 
	C241.306320,139.986053 242.320450,140.934784 243.668701,141.943420 
	C244.002823,142.003311 244.026199,142.027740 244.020050,142.367752 
	C244.018356,143.161438 244.022797,143.615097 244.027252,144.068771 
	C243.281815,146.422348 242.536392,148.775940 241.790970,151.129517 
	C241.353165,151.206573 240.915344,151.283630 240.477539,151.360687 
	C239.326965,149.165604 238.176392,146.970505 236.949066,144.415375 
	C237.225235,143.578110 237.578171,143.100906 237.965515,142.311905 
	C237.999908,142.000107 238.003067,141.995148 238.003067,141.995148 
z"/>
<path fill="#DCBAA4" opacity="1.000000" stroke="none" 
	d="
M258.018036,232.060333 
	C257.830658,231.469040 257.643311,230.877777 257.184906,230.123291 
	C259.221344,225.526062 261.528809,221.092056 263.989563,216.330536 
	C264.747040,216.493393 265.351288,216.983765 265.961212,218.153320 
	C263.317291,223.241776 260.667664,227.651047 258.018036,232.060333 
z"/>
<path fill="#E5CCBB" opacity="1.000000" stroke="none" 
	d="
M243.945984,275.956055 
	C244.268372,276.386230 244.590775,276.816376 244.947021,277.524872 
	C237.770950,280.351166 230.938049,279.157898 224.147247,275.410706 
	C225.051132,274.734894 226.138901,274.370697 227.686295,274.376404 
	C233.192261,278.222595 238.550568,277.530579 243.984650,275.956482 
	C243.992508,275.981873 243.945984,275.956055 243.945984,275.956055 
z"/>
<path fill="#DFC0AC" opacity="1.000000" stroke="none" 
	d="
M298.665466,146.043762 
	C299.754944,146.637207 301.200104,147.197952 301.343933,147.993881 
	C301.885193,150.988724 302.002563,154.060196 302.359344,157.484283 
	C302.440002,157.865616 302.398010,157.847992 302.134399,157.698761 
	C300.587189,156.359787 299.303528,155.170059 298.014801,153.589188 
	C297.972382,151.118668 297.935059,149.039291 297.897766,146.959900 
	C298.073059,146.679611 298.248383,146.399323 298.665466,146.043762 
z"/>
<path fill="#E1C3B0" opacity="1.000000" stroke="none" 
	d="
M298.019897,153.980316 
	C299.303528,155.170059 300.587189,156.359787 302.156891,157.706970 
	C300.878571,160.819122 299.314178,163.773819 297.445892,166.892609 
	C296.757050,166.277634 296.372101,165.498566 295.995209,164.355057 
	C296.003296,163.990616 296.040527,163.954407 296.386749,163.900970 
	C297.443420,162.369080 298.580231,160.938080 298.751526,159.399597 
	C298.945892,157.653946 298.275940,155.812042 297.991394,154.005127 
	C298.001038,153.998260 298.019897,153.980316 298.019897,153.980316 
z"/>
<path fill="#E1C3B0" opacity="1.000000" stroke="none" 
	d="
M297.593353,147.122986 
	C297.935059,149.039291 297.972382,151.118668 298.014801,153.589188 
	C298.019897,153.980316 298.001038,153.998260 297.754578,153.840393 
	C294.999573,152.962708 294.650513,153.395142 294.020935,157.991302 
	C293.997894,158.008286 293.954529,158.045624 293.954529,158.045624 
	C293.166199,158.280411 292.377838,158.515213 291.289612,158.588348 
	C290.974792,158.239212 290.959869,158.051697 290.944916,157.864166 
	C293.059601,154.338135 295.174255,150.812103 297.593353,147.122986 
z"/>
<path fill="#E1C3B0" opacity="1.000000" stroke="none" 
	d="
M232.022873,235.074692 
	C231.379333,234.325760 230.735809,233.576828 230.036316,232.530396 
	C230.425095,232.169708 230.869873,232.106537 231.829865,232.230423 
	C233.832794,231.613495 235.320496,230.809509 236.808212,230.005524 
	C237.654236,230.962585 238.500275,231.919617 239.671844,233.022369 
	C239.510284,233.759628 239.023163,234.351196 237.803894,234.971786 
	C235.388763,235.025436 233.705826,235.050064 232.022873,235.074692 
z"/>
<path fill="#E5CCBB" opacity="1.000000" stroke="none" 
	d="
M236.954559,229.697128 
	C235.320496,230.809509 233.832794,231.613495 232.165283,232.185242 
	C234.523071,229.422867 237.060654,226.892731 239.598251,224.362610 
	C240.338470,225.111603 241.078705,225.860596 241.818939,226.609589 
	C240.246262,227.535965 238.673584,228.462357 236.954559,229.697128 
z"/>
<path fill="#D9B39B" opacity="1.000000" stroke="none" 
	d="
M190.735123,337.042725 
	C190.984390,340.763947 190.958176,344.529907 190.932709,348.699036 
	C190.153671,349.031067 189.373917,348.959900 188.313660,348.988373 
	C188.371796,345.652618 188.710434,342.217224 189.071167,338.335205 
	C189.548706,337.621552 190.004181,337.354462 190.735123,337.042725 
z"/>
<path fill="#EAD6C9" opacity="1.000000" stroke="none" 
	d="
M282.149536,174.136703 
	C281.949341,174.107910 281.749146,174.079132 281.248077,174.012299 
	C281.741089,172.416763 282.535004,170.859268 283.622864,169.138184 
	C284.508942,170.753159 285.101074,172.531708 285.504944,174.669937 
	C284.260956,174.731964 283.205261,174.434326 282.149536,174.136703 
z"/>
<path fill="#EAD6C9" opacity="1.000000" stroke="none" 
	d="
M274.567444,185.095444 
	C275.858429,185.405823 276.863312,185.869064 277.939392,186.686401 
	C277.202423,187.679230 276.394196,188.317947 275.227783,188.950806 
	C274.673492,187.712723 274.477386,186.480499 274.567444,185.095444 
z"/>
<path fill="#F1E3DA" opacity="1.000000" stroke="none" 
	d="
M158.432205,335.015869 
	C158.872269,331.369507 161.189499,333.558990 163.390106,333.927887 
	C162.102371,334.293427 160.459274,334.601105 158.432205,335.015869 
z"/>
<path fill="#DFC0AC" opacity="1.000000" stroke="none" 
	d="
M243.990646,141.991028 
	C243.988251,141.526230 243.998047,141.073715 244.015717,140.281693 
	C245.285629,140.059326 246.547653,140.176468 248.067673,140.317551 
	C247.533112,141.635010 247.117630,142.658966 246.294235,143.452316 
	C245.266281,142.823715 244.646240,142.425720 244.026199,142.027740 
	C244.026199,142.027740 244.002823,142.003311 243.990646,141.991028 
z"/>
<path fill="#F1E3DA" opacity="1.000000" stroke="none" 
	d="
M155.739655,347.654785 
	C155.207611,348.783752 154.609619,349.559082 154.000259,350.672668 
	C153.136703,349.132263 151.169968,346.747406 155.739655,347.654785 
z"/>
<path fill="#F1E3DA" opacity="1.000000" stroke="none" 
	d="
M162.818817,330.647644 
	C161.288589,330.991791 159.581161,330.998413 157.447327,330.999481 
	C158.894485,330.765991 160.768066,330.538055 162.818817,330.647644 
z"/>
<path fill="#F1E3DA" opacity="1.000000" stroke="none" 
	d="
M154.663544,334.130188 
	C154.987427,335.344208 154.997726,336.748535 155.002579,338.572784 
	C154.781418,337.435303 154.565689,335.877869 154.663544,334.130188 
z"/>
<path fill="#E1C3B0" opacity="1.000000" stroke="none" 
	d="
M277.367798,203.884445 
	C277.121552,202.575470 277.216583,201.069855 277.549713,199.275391 
	C277.761597,200.553619 277.735352,202.120728 277.367798,203.884445 
z"/>
<path fill="#F1E3DA" opacity="1.000000" stroke="none" 
	d="
M161.102936,347.350464 
	C160.977829,347.983948 160.873947,348.946136 160.461761,349.953186 
	C160.477020,349.225128 160.800583,348.452148 161.102936,347.350464 
z"/>
<path fill="#E0C1AE" opacity="1.000000" stroke="none" 
	d="
M244.020050,142.367737 
	C244.646240,142.425720 245.266281,142.823715 245.941940,143.518127 
	C245.561966,143.881943 245.126389,143.949326 244.359024,144.042740 
	C244.022797,143.615097 244.018356,143.161438 244.020050,142.367737 
z"/>
<path fill="#F1E3DA" opacity="1.000000" stroke="none" 
	d="
M160.346558,353.876709 
	C160.779282,353.537231 161.547195,353.263916 162.634293,352.997681 
	C162.196228,353.317474 161.438995,353.630188 160.346558,353.876709 
z"/>
<path fill="#EFE0D6" opacity="1.000000" stroke="none" 
	d="
M314.928101,335.685913 
	C314.640564,335.539093 314.330933,335.090881 314.009766,334.356995 
	C314.300812,334.509094 314.603424,334.946777 314.928101,335.685913 
z"/>
<path fill="#F1E3DA" opacity="1.000000" stroke="none" 
	d="
M159.640381,350.157532 
	C159.414215,350.296906 158.866669,350.418640 158.175430,350.341858 
	C158.460831,350.142212 158.889923,350.141052 159.640381,350.157532 
z"/>
<path fill="#F1E3DA" opacity="1.000000" stroke="none" 
	d="
M157.808411,349.710419 
	C157.355606,349.795502 156.832001,349.589569 156.175598,349.124603 
	C156.607758,349.050171 157.172699,349.234802 157.808411,349.710419 
z"/>
<path fill="#F0E2D8" opacity="1.000000" stroke="none" 
	d="
M288.291260,348.844208 
	C288.173065,348.403656 288.342133,347.871216 288.747223,347.177734 
	C288.848328,347.595245 288.713409,348.173798 288.291260,348.844208 
z"/>
<path fill="#F1E3DA" opacity="1.000000" stroke="none" 
	d="
M157.251816,343.259155 
	C157.542419,343.134583 157.725464,343.295410 157.921021,343.686829 
	C157.625015,343.939178 157.361923,343.814880 157.251816,343.259155 
z"/>
<path fill="#F0E2D8" opacity="1.000000" stroke="none" 
	d="
M287.250916,349.905762 
	C287.100128,349.662750 287.269348,349.413940 287.724487,349.117920 
	C287.950989,349.380920 287.804504,349.657349 287.250916,349.905762 
z"/>
<path fill="#D9B39B" opacity="1.000000" stroke="none" 
	d="
M276.892151,205.785645 
	C276.665405,205.868362 276.505524,205.699142 276.404114,205.500092 
	C276.371307,205.435684 276.491852,205.293106 276.688873,205.085663 
	C276.884277,205.164078 276.933014,205.343109 276.892151,205.785645 
z"/>
<path fill="#F1E3DA" opacity="1.000000" stroke="none" 
	d="
M163.258972,352.902008 
	C163.113724,352.639679 163.300323,352.392029 163.787323,352.111511 
	C163.836792,352.293671 163.671158,352.573059 163.258972,352.902008 
z"/>
<path fill="#F1E3DA" opacity="1.000000" stroke="none" 
	d="
M160.136292,346.253082 
	C160.393707,346.103882 160.627029,346.274170 160.894058,346.724243 
	C160.625839,346.947601 160.353973,346.803802 160.136292,346.253082 
z"/>
<path fill="#F1E3DA" opacity="1.000000" stroke="none" 
	d="
M159.156738,345.256012 
	C159.419022,345.104675 159.643112,345.269379 159.897308,345.705017 
	C159.625626,345.942749 159.355988,345.808105 159.156738,345.256012 
z"/>
<path fill="#F1E3DA" opacity="1.000000" stroke="none" 
	d="
M158.159058,344.254456 
	C158.417831,344.098633 158.639008,344.255280 158.893005,344.675110 
	C158.620712,344.935516 158.352600,344.811737 158.159058,344.254456 
z"/>
<path fill="#F1E3DA" opacity="1.000000" stroke="none" 
	d="
M163.806946,331.741028 
	C163.506577,331.855652 163.303497,331.660919 163.087570,331.203918 
	C163.292175,331.166565 163.568695,331.329926 163.806946,331.741028 
z"/>
<path fill="#F1E3DA" opacity="1.000000" stroke="none" 
	d="
M155.250122,340.265289 
	C155.551804,340.158508 155.739365,340.346375 155.927704,340.786713 
	C155.638412,340.962128 155.374252,340.802368 155.250122,340.265289 
z"/>
<path fill="#E1C3B0" opacity="1.000000" stroke="none" 
	d="
M227.751099,232.110992 
	C227.994110,232.183594 227.645081,232.512726 227.645081,232.512726 
	C227.645081,232.512726 227.199020,232.428986 227.106537,232.291321 
	C227.178726,232.115250 227.343399,232.076828 227.751099,232.110992 
z"/>
<path fill="#EFE0D6" opacity="1.000000" stroke="none" 
	d="
M203.247025,339.939545 
	C203.081039,339.709137 203.235245,339.447479 203.679245,339.127502 
	C203.941238,339.389954 203.807297,339.669617 203.247025,339.939545 
z"/>
<path fill="#D9B39B" opacity="1.000000" stroke="none" 
	d="
M191.712067,335.997437 
	C191.816681,336.226135 191.663879,336.539642 191.254852,336.931641 
	C191.150635,336.700867 191.302643,336.391602 191.712067,335.997437 
z"/>
<path fill="#EFE0D6" opacity="1.000000" stroke="none" 
	d="
M313.879761,333.748779 
	C313.614166,333.908508 313.371368,333.735992 313.101166,333.265747 
	C313.375793,333.041840 313.652039,333.191345 313.879761,333.748779 
z"/>
<path fill="#EFE0D6" opacity="1.000000" stroke="none" 
	d="
M312.895203,332.755188 
	C312.664185,332.949677 312.428619,332.823608 312.127625,332.442810 
	C312.377930,332.071167 312.654083,332.153351 312.895203,332.755188 
z"/>
<path fill="#DFC0AC" opacity="1.000000" stroke="none" 
	d="
M290.706207,157.968887 
	C290.959869,158.051697 290.974792,158.239212 290.999939,158.708206 
	C291.010223,158.989700 290.985138,159.015076 290.763916,159.033600 
	C290.542725,159.052139 290.129486,159.121506 290.129486,159.121506 
	C290.129486,159.121506 290.030365,159.027725 289.981232,158.980103 
	C290.110565,158.646179 290.289032,158.359894 290.706207,157.968887 
z"/>
<path fill="#000000" opacity="1.000000" stroke="none" 
	d="
M306.920593,339.927429 
	C306.929504,337.690582 306.929504,335.904327 306.929504,334.118042 
	C307.284393,333.915253 307.639252,333.712433 307.994141,333.509644 
	C309.020111,334.661621 310.722168,335.698486 310.941742,336.987793 
	C311.533478,340.462311 310.859680,343.765869 306.911682,346.100494 
	C306.911682,343.883148 306.911682,342.130554 306.920593,339.927429 
z"/>
<path fill="#000000" opacity="1.000000" stroke="none" 
	d="
M204.328064,337.083008 
	C204.542862,336.383820 205.050903,335.848907 205.800140,335.634338 
	C205.954926,336.565094 205.868546,337.175507 205.782166,337.785919 
	C205.395218,337.606384 205.008270,337.426849 204.328064,337.083008 
z"/>
<path fill="#000000" opacity="1.000000" stroke="none" 
	d="
M270.959473,239.526428 
	C268.623779,248.037048 266.432587,256.195343 261.404877,263.294525 
	C257.080017,269.401245 251.418610,273.324341 244.118683,275.626190 
	C243.945984,275.956055 243.992508,275.981873 243.538635,275.997681 
	C240.229401,276.013489 237.374054,276.013489 233.753738,276.013489 
	C235.708099,274.642761 236.900620,273.806335 238.093155,272.969910 
	C237.949112,272.599365 237.805054,272.228821 237.661011,271.858276 
	C236.106644,272.300079 234.552261,272.741882 232.640945,273.097961 
	C231.550003,272.996094 230.816010,272.979919 230.082016,272.963776 
	C230.384064,271.922577 230.686127,270.881378 231.027740,269.496887 
	C236.983871,261.602692 242.952942,254.092041 248.789749,246.479996 
	C250.946396,243.667374 252.791824,240.616119 254.899658,237.344452 
	C255.020126,237.015213 254.999969,237.000992 255.383881,236.846207 
	C258.421753,236.376862 261.075684,236.062302 263.495728,235.775452 
	C263.288605,238.868484 263.124207,241.323654 262.959808,243.778839 
	C263.539337,243.832626 264.118835,243.886429 264.698334,243.940231 
	C265.154541,241.644363 265.610748,239.348511 266.066956,237.052658 
	C266.066956,237.052658 266.001984,237.004166 266.317627,236.909851 
	C267.442322,236.223526 268.251404,235.631531 269.060486,235.039520 
	C269.060486,235.039536 269.021973,235.015732 269.030212,235.037109 
	C269.679718,236.426270 270.320953,237.794052 270.959473,239.526428 
M251.279724,265.911102 
	C259.177094,258.759644 262.604370,252.499176 260.599487,247.117401 
	C257.462128,258.738739 249.682632,265.297607 238.677338,270.176453 
	C244.871735,271.879242 247.255844,267.824738 251.279724,265.911102 
z"/>
<path fill="#000000" opacity="1.000000" stroke="none" 
	d="
M258.148499,232.454987 
	C260.667664,227.651047 263.317291,223.241776 266.005493,218.470810 
	C266.996460,217.876907 267.948822,217.644714 268.957916,217.927612 
	C269.014618,218.442688 268.945526,218.891937 268.945526,218.891937 
	C268.638855,219.698990 268.332184,220.506027 268.094177,221.662964 
	C267.445038,224.406006 266.727203,226.799164 265.965302,229.586090 
	C264.667206,234.380875 261.295929,233.143539 258.148499,232.454987 
z"/>
<path fill="#000000" opacity="1.000000" stroke="none" 
	d="
M270.024323,223.528976 
	C270.958282,221.559341 271.853271,219.993530 273.034515,217.926895 
	C273.034515,219.696732 273.034515,220.967789 273.105042,222.627777 
	C272.794159,225.569153 272.599731,228.172241 271.929993,230.646667 
	C271.695282,231.513840 270.292084,232.064728 269.422424,232.760025 
	C269.251862,231.860489 268.861176,230.937332 268.954742,230.066162 
	C269.175720,228.008545 269.627136,225.975677 270.024323,223.528976 
z"/>
<path fill="#DFC0AC" opacity="1.000000" stroke="none" 
	d="
M303.867737,150.363739 
	C303.514679,148.245438 303.514679,146.210907 303.514679,144.176376 
	C304.321106,144.313446 305.127533,144.450500 305.933960,144.587555 
	C305.362915,146.540863 304.791870,148.494186 303.867737,150.363739 
z"/>
<path fill="#000000" opacity="1.000000" stroke="none" 
	d="
M239.813660,237.350220 
	C243.758270,236.514267 247.699402,236.028381 253.241730,235.345078 
	C245.269012,247.401718 238.604462,258.347015 229.229889,267.672394 
	C228.455093,268.725769 227.693115,269.446625 226.415909,270.654877 
	C224.537155,261.099121 229.129013,254.255569 233.223175,247.335724 
	C235.200043,243.994461 237.601135,240.904190 239.813660,237.350220 
z"/>
<path fill="#000000" opacity="1.000000" stroke="none" 
	d="
M231.886429,235.377335 
	C233.705826,235.050064 235.388763,235.025436 237.492340,235.016785 
	C237.952942,235.465408 237.992920,235.898071 237.982483,236.653992 
	C230.328186,246.700806 224.163589,257.090546 222.470627,270.453339 
	C221.147049,269.163940 220.037430,268.083008 218.559448,266.964661 
	C214.566971,256.243134 220.040695,248.437775 226.474640,240.982407 
	C228.099472,239.099609 229.984512,237.441391 231.886429,235.377335 
z"/>
<path fill="#DFC0AC" opacity="1.000000" stroke="none" 
	d="
M232.997894,273.183685 
	C234.552261,272.741882 236.106644,272.300079 237.661011,271.858276 
	C237.805054,272.228821 237.949112,272.599365 238.093155,272.969910 
	C236.900620,273.806335 235.708099,274.642761 233.753738,276.013489 
	C237.374054,276.013489 240.229401,276.013489 243.530762,275.972290 
	C238.550568,277.530579 233.192261,278.222595 228.056274,274.380005 
	C228.138733,274.009521 228.310822,274.005371 228.961426,274.250122 
	C230.625916,274.060577 231.811905,273.622131 232.997894,273.183685 
z"/>
<path fill="#E0C1AE" opacity="1.000000" stroke="none" 
	d="
M232.640945,273.097961 
	C231.811905,273.622131 230.625916,274.060577 229.219604,274.247681 
	C229.208252,273.730469 229.417206,273.464600 229.854095,273.081238 
	C230.816010,272.979919 231.550003,272.996094 232.640945,273.097961 
z"/>
<path fill="#E1C3B0" opacity="1.000000" stroke="none" 
	d="
M273.785614,205.942459 
	C273.679169,206.786667 273.393372,207.623535 273.107574,208.460388 
	C272.743958,207.858902 272.380341,207.257431 271.994202,206.311981 
	C271.971649,205.968033 271.987091,205.994278 272.298462,205.991943 
	C272.822418,205.976257 273.035004,205.962891 273.247589,205.949524 
	C273.247589,205.949524 273.606262,205.935104 273.785614,205.942459 
z"/>
<path fill="#000000" opacity="1.000000" stroke="none" 
	d="
M270.973083,200.605133 
	C270.781921,200.984100 270.604614,201.068481 270.222443,201.364059 
	C269.868866,201.040024 269.720184,200.504776 269.845032,199.522400 
	C270.407990,199.487030 270.697479,199.898788 270.973083,200.605133 
z"/>
<path fill="#D9B39B" opacity="1.000000" stroke="none" 
	d="
M273.157043,205.658875 
	C273.035004,205.962891 272.822418,205.976257 272.290222,205.985260 
	C271.985382,205.546417 272.000244,205.111938 272.009155,204.351929 
	C272.357666,204.473648 272.712067,204.920944 273.157043,205.658875 
z"/>
<path fill="#D9B39B" opacity="1.000000" stroke="none" 
	d="
M282.075592,174.475464 
	C283.205261,174.434326 284.260956,174.731964 285.655579,175.006775 
	C286.746399,175.323685 287.498322,175.663391 288.574402,176.029663 
	C287.431091,178.436737 285.963623,180.817215 284.496155,183.197708 
	C284.081940,183.335114 283.667755,183.472519 283.253540,183.609940 
	C282.836243,180.678040 282.418945,177.746140 282.075592,174.475464 
z"/>
<path fill="#E1C3B0" opacity="1.000000" stroke="none" 
	d="
M294.958221,162.043579 
	C294.630646,160.923264 294.303070,159.802948 293.965027,158.364120 
	C293.954529,158.045624 293.997894,158.008286 294.272583,158.240082 
	C294.713684,159.638000 294.880096,160.804092 295.023743,161.987762 
	C295.001038,162.005310 294.958221,162.043579 294.958221,162.043579 
z"/>
<path fill="#E1C3B0" opacity="1.000000" stroke="none" 
	d="
M290.114014,159.350342 
	C290.129486,159.121506 290.542725,159.052139 290.751801,159.045898 
	C290.827881,159.447449 290.694855,159.855255 290.561829,160.263046 
	C290.407410,160.035095 290.252960,159.807144 290.114014,159.350342 
z"/>
<path fill="#E1C3B0" opacity="1.000000" stroke="none" 
	d="
M295.983093,164.006927 
	C295.652863,163.555771 295.342865,163.088318 294.995544,162.332214 
	C294.958221,162.043579 295.001038,162.005310 295.250610,162.168381 
	C295.680298,162.872437 295.860413,163.413422 296.040527,163.954407 
	C296.040527,163.954407 296.003296,163.990616 295.983093,164.006927 
z"/>
<path fill="#E1C3B0" opacity="1.000000" stroke="none" 
	d="
M269.099884,219.110168 
	C268.945526,218.891937 269.014618,218.442688 269.094055,218.229767 
	C269.638580,218.325607 270.103729,218.634338 270.568848,218.943085 
	C270.130646,219.071518 269.692444,219.199951 269.099884,219.110168 
z"/>
<path fill="#E0C1AE" opacity="1.000000" stroke="none" 
	d="
M265.750031,236.824860 
	C265.610748,239.348511 265.154541,241.644363 264.698334,243.940231 
	C264.118835,243.886429 263.539337,243.832626 262.959808,243.778839 
	C263.124207,241.323654 263.288605,238.868484 263.495728,235.775452 
	C261.075684,236.062302 258.421753,236.376862 255.391098,236.856064 
	C258.345306,233.387619 261.866119,234.424683 265.750031,236.824860 
z"/>
<path fill="#E1C3B0" opacity="1.000000" stroke="none" 
	d="
M268.697815,235.024796 
	C268.251404,235.631531 267.442322,236.223526 266.340393,236.943405 
	C266.810028,236.384216 267.572571,235.697144 268.697815,235.024796 
z"/>
<path fill="#DFC0AC" opacity="1.000000" stroke="none" 
	d="
M237.997208,142.002808 
	C237.364059,141.967133 236.733612,141.928757 236.103149,141.890381 
	C236.106384,141.735794 236.109634,141.581192 236.112869,141.426605 
	C236.628250,141.467102 237.143631,141.507599 237.831039,141.771637 
	C238.003067,141.995148 237.999908,142.000107 237.997208,142.002808 
z"/>
<path fill="#DFC0AC" opacity="1.000000" stroke="none" 
	d="
M296.386749,163.900970 
	C295.860413,163.413422 295.680298,162.872437 295.273315,162.150818 
	C294.880096,160.804092 294.713684,159.638000 294.295593,158.223114 
	C294.650513,153.395142 294.999573,152.962708 297.744965,153.847260 
	C298.275940,155.812042 298.945892,157.653946 298.751526,159.399597 
	C298.580231,160.938080 297.443420,162.369080 296.386749,163.900970 
z"/>
<path fill="#E2C5B3" opacity="1.000000" stroke="none" 
	d="
M250.917480,265.971619 
	C247.255844,267.824738 244.871735,271.879242 238.677338,270.176453 
	C249.682632,265.297607 257.462128,258.738739 260.599487,247.117401 
	C262.604370,252.499176 259.177094,258.759644 250.917480,265.971619 
z"/>
</svg>